<svg width="100" height="100" viewBox="0 0 100 100" fill="none" xmlns="http://www.w3.org/2000/svg">
<path d="M25.4464 4.41468L22.7183 7.04365L15.8234 0L9.67262 6.15079L16.6667 13.1944L13.1944 16.6667L6.15079 9.67262L0 15.8234L7.04365 22.7183L4.41468 25.4464L11.4087 32.4405L67.5595 88.5913L74.5536 95.5853L77.2817 92.9564L84.1766 100L90.3274 93.8492L83.3333 86.8552L86.8552 83.3333L93.8492 90.3274L100 84.1766L92.9564 77.2817L95.5853 74.5536L88.5913 67.5595L32.4405 11.4087L25.4464 4.41468ZM25.4464 18.4524L81.5476 74.5536L74.5536 81.5476L18.4524 25.4464L25.4464 18.4524Z" fill="black"/>
</svg>
